<svg width="287" height="38" viewBox="0 0 287 38" fill="none" xmlns="http://www.w3.org/2000/svg">
<path d="M6.81543 20.5488C14.201 20.5488 21.6286 24.1429 28.803 25.5876C39.8706 27.8162 52.2419 28.4896 61.5554 20.8542C65.9447 17.2557 65.7512 11.1029 68.3502 6.42478C69.1095 5.05805 70.586 8.26903 70.7933 8.56247C74.1275 13.2824 77.5581 17.9732 81.4817 22.2284C87.0771 28.2967 93.4796 32.3713 101.942 31.1227C112.407 29.5787 121.597 20.3998 130.419 15.1664C137.203 11.1423 144.65 6.80257 152.712 6.15757C156.976 5.81652 159.729 12.2456 161.95 15.0519C168.792 23.694 174.388 25.2867 185.388 23.3736C196.285 21.4785 206.007 16.0046 216.156 11.9217C222.042 9.55388 225.045 16.5163 229.516 19.8998C236.004 24.809 245.912 31.5426 254.52 31.5426C257.353 31.5426 259.991 27.9779 262.345 26.6564C265.439 24.9195 270.594 21.3686 274.446 21.9612C276.795 22.3225 279.035 26.035 280.974 27.4199" stroke="#208BE8" stroke-width="12" stroke-linecap="round"/>
</svg>
