<svg width="385" height="367" viewBox="0 0 385 367" fill="none" xmlns="http://www.w3.org/2000/svg">
<path d="M103.684 43.8592C105.769 39.6899 109.145 36.9588 112.898 34.2154C128.637 22.7095 148.746 16.2122 167.532 11.6987C184.133 7.71022 202.875 4.63673 220.013 7.00598C229.188 8.27438 237.877 13.4816 245.845 17.8553C259.541 25.3739 272.6 34.1927 285.367 43.1704C297.021 51.365 308.589 59.8053 319.336 69.1743C325.025 74.1342 332.786 80.0991 335.997 87.2565C338.429 92.6755 339.06 96.1985 344.307 99.8709C349.306 103.371 354.373 106.737 359.246 110.419C363.237 113.434 368.49 116.565 371.215 120.924C373.5 124.581 374.229 129.019 374.573 133.237C375.568 145.443 374.917 157.902 374.917 170.133C374.917 190.464 372.812 212.199 377.199 232.215C378.38 237.604 380.831 245.351 376.037 249.738C370.414 254.883 362.263 256.761 355.113 258.521C340.877 262.023 326.142 264.107 312.404 269.413C295.728 275.853 287.937 292.172 278.393 306.223C269.698 319.023 262.643 332.86 253.939 345.616C242.738 362.032 224.104 361.371 205.806 360.47C187.962 359.59 170.765 355.884 153.453 351.687C134.014 346.973 114.095 343.135 94.9876 337.178C78.6951 332.099 63.464 324.466 52.882 310.787C42.4974 297.363 33.9094 282.837 24.7254 268.595C17.8988 258.009 10.3846 246.701 8.06398 234.067C6.17719 223.794 8.049 212.788 7.41819 202.38C7.17532 198.372 6.3858 194.217 7.84872 190.325C10.1736 184.14 16.4309 180.049 21.4104 176.204C31.9713 168.048 45.5987 160.309 47.974 145.981C51.068 127.317 33.2897 114.803 20.334 104.951C14.1894 100.279 6.42464 95.0793 6.81545 86.4815C7.17672 78.5336 16.4175 71.3324 21.7117 66.2036C33.3149 54.963 44.7741 48.5338 59.7704 43.4287C61.9102 42.7003 65.0241 41.5343 67.3047 41.5343C71.0122 41.5343 74.088 43.9438 77.7665 44.4619C85.5154 45.5533 93.5621 43.8592 101.359 43.8592" stroke="white" stroke-width="12" stroke-linecap="round"/>
</svg>
